<svg xmlns="http://www.w3.org/2000/svg" xmlns:xlink="http://www.w3.org/1999/xlink" width="500" zoomAndPan="magnify" viewBox="0 0 375 374.999991" height="500" preserveAspectRatio="xMidYMid meet" version="1.0"><defs><g/></defs><g fill="#00343d" fill-opacity="1"><g transform="translate(99.986285, 216.696372)"><g><path d="M 50.03125 -60.1875 L 50.03125 -49.65625 L 21.5625 -49.65625 C 18.96875 -49.65625 17.234375 -49.191406 16.359375 -48.265625 C 15.484375 -47.347656 15.046875 -46.007812 15.046875 -44.25 C 15.046875 -42.664062 16.066406 -41.265625 18.109375 -40.046875 C 20.160156 -38.835938 23.484375 -37.648438 28.078125 -36.484375 C 36.941406 -34.304688 43.316406 -31.710938 47.203125 -28.703125 C 51.085938 -25.703125 53.03125 -21.734375 53.03125 -16.796875 C 53.03125 -13.785156 52.507812 -11.234375 51.46875 -9.140625 C 50.425781 -7.054688 49.066406 -5.320312 47.390625 -3.9375 C 45.722656 -2.5625 43.78125 -1.5625 41.5625 -0.9375 C 39.34375 -0.3125 37.066406 0 34.734375 0 L 3.515625 0 L 3.515625 -10.53125 L 34.609375 -10.53125 C 36.859375 -10.53125 38.566406 -10.96875 39.734375 -11.84375 C 40.910156 -12.726562 41.5 -14.210938 41.5 -16.296875 C 41.5 -18.222656 40.410156 -19.8125 38.234375 -21.0625 C 36.066406 -22.3125 32.847656 -23.523438 28.578125 -24.703125 C 24.148438 -25.867188 20.390625 -27.035156 17.296875 -28.203125 C 14.203125 -29.378906 11.65625 -30.71875 9.65625 -32.21875 C 5.5625 -35.3125 3.515625 -39.195312 3.515625 -43.875 C 3.515625 -49.394531 5.332031 -53.492188 8.96875 -56.171875 C 12.601562 -58.847656 17.554688 -60.1875 23.828125 -60.1875 Z M 50.03125 -60.1875 "/></g></g></g><g fill="#00343d" fill-opacity="1"><g transform="translate(141.231499, 216.696372)"><g><path d="M 24.078125 -73.59375 C 24.078125 -71.925781 23.507812 -70.398438 22.375 -69.015625 C 21.25 -67.640625 19.597656 -66.953125 17.421875 -66.953125 C 15.253906 -66.953125 13.601562 -67.640625 12.46875 -69.015625 C 11.34375 -70.398438 10.78125 -71.925781 10.78125 -73.59375 C 10.78125 -75.269531 11.34375 -76.796875 12.46875 -78.171875 C 13.601562 -79.546875 15.253906 -80.234375 17.421875 -80.234375 C 19.597656 -80.234375 21.25 -79.546875 22.375 -78.171875 C 23.507812 -76.796875 24.078125 -75.269531 24.078125 -73.59375 Z M 22.9375 -60.1875 L 22.9375 0 L 11.90625 0 L 11.90625 -60.1875 Z M 22.9375 -60.1875 "/></g></g></g><g fill="#00343d" fill-opacity="1"><g transform="translate(161.66577, 216.696372)"><g><path d="M 45.265625 -52.90625 C 47.265625 -55.832031 49.8125 -57.984375 52.90625 -59.359375 C 56 -60.742188 59.300781 -61.4375 62.8125 -61.4375 C 65.988281 -61.4375 68.890625 -60.867188 71.515625 -59.734375 C 74.148438 -58.609375 76.429688 -57.101562 78.359375 -55.21875 C 80.285156 -53.34375 81.769531 -51.191406 82.8125 -48.765625 C 83.851562 -46.347656 84.375 -43.800781 84.375 -41.125 L 84.375 0 L 73.34375 0 L 73.34375 -38.609375 C 73.34375 -42.117188 72.398438 -45.046875 70.515625 -47.390625 C 68.640625 -49.734375 65.988281 -50.90625 62.5625 -50.90625 C 58.800781 -50.90625 55.894531 -49.773438 53.84375 -47.515625 C 51.800781 -45.253906 50.78125 -41.742188 50.78125 -36.984375 L 50.78125 0 L 39.75 0 L 39.75 -36.984375 C 39.75 -41.742188 38.722656 -45.253906 36.671875 -47.515625 C 34.617188 -49.773438 31.710938 -50.90625 27.953125 -50.90625 C 24.609375 -50.90625 21.972656 -49.753906 20.046875 -47.453125 C 18.128906 -45.148438 17.171875 -42.242188 17.171875 -38.734375 L 17.171875 0 L 6.140625 0 L 6.140625 -41.25 C 6.140625 -43.925781 6.679688 -46.492188 7.765625 -48.953125 C 8.859375 -51.421875 10.363281 -53.570312 12.28125 -55.40625 C 14.207031 -57.25 16.484375 -58.710938 19.109375 -59.796875 C 21.742188 -60.890625 24.609375 -61.4375 27.703125 -61.4375 C 31.210938 -61.4375 34.515625 -60.742188 37.609375 -59.359375 C 40.703125 -57.984375 43.253906 -55.832031 45.265625 -52.90625 Z M 45.265625 -52.90625 "/></g></g></g><g fill="#00343d" fill-opacity="1"><g transform="translate(237.763059, 216.696372)"><g><path d="M 19.4375 -87.765625 L 19.4375 0 L 8.40625 0 L 8.40625 -87.765625 Z M 19.4375 -87.765625 "/></g></g></g></svg>